<svg width="200" height="47" viewBox="0 0 200 47" fill="none" xmlns="http://www.w3.org/2000/svg">
<path d="M19.0042 0C19.267 0.181231 19.5825 0.156356 19.8734 0.230981C23.2765 1.08383 26.0908 4.34954 25.8525 8.6138C25.6527 12.1922 22.8068 15.3726 19.2039 15.9554C14.8405 16.659 10.7365 13.6385 10.0846 9.24633C9.42921 4.84704 12.3452 0.813762 16.7016 0.0817316C16.7752 0.0675174 16.8663 0.0959458 16.9083 0H19.0042Z" fill="#13B6D0"/>
<path d="M36.7872 0C37.0431 0.156356 37.3445 0.142142 37.6213 0.22032C40.5653 1.01631 42.5455 2.87837 43.3761 5.83848C44.2138 8.8199 43.5198 11.5242 41.3504 13.6989C39.0618 15.9945 36.251 16.659 33.1984 15.6001C30.1808 14.5518 28.3758 12.3237 27.9307 9.11485C27.3104 4.65159 30.3245 0.696495 34.7264 0.0746245C34.772 0.0675174 34.814 0.0284284 34.8561 0.00710709H36.7872V0V0Z" fill="#00E76E"/>
<path d="M199.926 31.5306C199.94 31.2854 199.845 31.026 199.997 30.7915V31.5235C199.972 31.5235 199.947 31.5235 199.926 31.5271V31.5306Z" fill="#00E76E"/>
<path d="M25.9227 32.8455V44.6148C25.9227 44.8742 25.9122 45.1301 25.8491 45.3824C25.6598 46.1642 25.1306 46.3703 24.4612 45.9154C24.0442 45.6311 23.7357 45.2331 23.3993 44.8671C20.4238 41.6476 17.4552 38.421 14.4832 35.1979C9.86746 30.1874 5.25171 25.1805 0.632452 20.17C0.404644 19.9212 0.190854 19.6583 0.0751978 19.3313C-0.117563 18.7805 0.0611788 18.3754 0.60091 18.1551C0.863766 18.0485 1.14064 18.0059 1.42803 18.0059H23.1154C24.6575 18.0059 25.9192 19.2994 25.9192 20.8736C25.9227 24.8642 25.9192 28.8548 25.9192 32.8455H25.9227Z" fill="#13B6D0"/>
<path d="M27.959 32.8278V21.0158C27.959 19.2355 29.1821 18.0024 30.945 18.0024H52.2714C52.6219 18.0024 52.9689 18.0344 53.2948 18.1659C53.7925 18.3685 53.9642 18.7665 53.7995 19.2853C53.6943 19.6158 53.4876 19.8823 53.2598 20.131C49.8672 23.8089 46.4746 27.4904 43.0855 31.1719C38.6975 35.9336 34.3096 40.6954 29.9216 45.4571C29.7114 45.6881 29.48 45.8978 29.1997 46.0364C28.695 46.2851 28.2989 46.1288 28.0992 45.6028C27.9835 45.2937 27.9625 44.9703 27.9625 44.6434V32.8314H27.959V32.8278Z" fill="#00E76E"/>
<path d="M168.51 26.8364C168.839 26.4775 169.092 26.1648 169.379 25.8911C170.907 24.4342 172.712 24.2174 174.612 24.8784C176.452 25.518 177.296 27.014 177.464 28.8903C177.664 31.0686 177.506 33.2576 177.545 35.4431C177.552 35.9192 177.556 36.3919 177.545 36.868C177.52 37.8133 176.816 38.5524 175.964 38.5311C175.053 38.5098 174.433 37.8346 174.429 36.8467C174.419 34.6471 174.457 32.4474 174.394 30.2513C174.345 28.4141 173.22 27.3658 171.478 27.3836C169.835 27.3978 168.573 28.6451 168.538 30.365C168.496 32.5505 168.517 34.7359 168.506 36.9213C168.499 38.2219 167.269 38.9931 166.186 38.3854C165.671 38.0976 165.415 37.632 165.415 37.0493C165.408 33.4389 165.405 29.8285 165.415 26.2145C165.415 25.3119 166.077 24.6403 166.922 24.6296C167.809 24.6154 168.485 25.2941 168.51 26.2216C168.513 26.4028 168.51 26.5876 168.51 26.8399V26.8364Z" fill="#00E76E"/>
<path d="M145.946 38.6376C143.833 38.6305 142.122 38.0229 140.563 36.9675C140.037 36.6121 139.911 35.8232 140.265 35.2582C140.636 34.6683 141.4 34.5048 142.038 34.9135C142.848 35.4323 143.703 35.841 144.642 36.0471C145.329 36.1963 146.023 36.2425 146.714 36.072C147.583 35.8552 148.059 35.1374 147.846 34.4018C147.727 33.9896 147.411 33.7586 147.061 33.5738C146.248 33.1474 145.357 32.9377 144.488 32.6677C143.808 32.458 143.146 32.2093 142.518 31.8681C139.897 30.4502 140.36 27.0637 142.056 25.724C143.17 24.8428 144.453 24.5407 145.827 24.6082C147.18 24.6722 148.463 25.0489 149.668 25.6814C150.106 25.9124 150.415 26.25 150.45 26.783C150.513 27.8313 149.598 28.4816 148.648 28.0552C148.158 27.8348 147.681 27.5896 147.169 27.4226C146.318 27.1419 145.459 26.9749 144.565 27.213C144.33 27.2769 144.117 27.3871 143.931 27.5506C143.37 28.0481 143.377 28.7978 143.955 29.274C144.432 29.6685 145.007 29.8604 145.578 30.0594C146.552 30.4005 147.555 30.6528 148.48 31.1254C149.44 31.6158 150.274 32.2448 150.586 33.3464C151.06 35.0201 150.523 37.2802 148.245 38.197C147.439 38.5239 146.594 38.6554 145.95 38.6376H145.946Z" fill="#00E76E"/>
<path d="M180.114 31.4027C180.114 30.262 180.1 29.1249 180.121 27.9842C180.128 27.6359 180.065 27.5009 179.672 27.4973C178.666 27.4902 178.036 26.6267 178.344 25.7525C178.53 25.2266 178.985 24.9175 179.588 24.9032C179.935 24.8926 180.11 24.7078 180.11 24.3489C180.11 23.7803 180.107 23.2082 180.11 22.6396C180.117 21.7832 180.808 21.1116 181.667 21.1187C182.504 21.1258 183.174 21.7903 183.184 22.6396C183.191 23.2508 183.212 23.862 183.177 24.4697C183.156 24.8499 183.289 24.921 183.629 24.9103C184.285 24.8855 184.943 24.8997 185.599 24.9032C186.408 24.9103 186.969 25.4327 186.976 26.1754C186.987 26.9145 186.436 27.4796 185.641 27.5044C184.943 27.5258 184.246 27.5186 183.549 27.5044C183.286 27.4973 183.174 27.5506 183.174 27.8562C183.188 29.864 183.174 31.8717 183.184 33.8795C183.195 35.2298 183.903 35.8197 185.234 35.6207C186.072 35.4964 186.689 35.8233 186.878 36.4914C187.057 37.1168 186.713 37.8097 186.076 38.0229C184.88 38.4245 183.661 38.4991 182.438 38.1686C180.976 37.7706 180.138 36.5802 180.11 34.8603C180.093 33.7089 180.107 32.554 180.107 31.3991H180.114V31.4027Z" fill="#00E76E"/>
<path d="M122.398 27.3694C122.906 26.4845 123.456 25.6921 124.273 25.1235C124.83 24.7362 125.436 24.5017 126.127 24.6402C126.88 24.7895 127.301 25.3154 127.325 26.1008C127.347 26.8541 126.926 27.4582 126.2 27.6288C125.475 27.7994 124.778 28.0126 124.182 28.4816C123.008 29.4091 122.51 30.699 122.44 32.1382C122.363 33.7089 122.408 35.2867 122.394 36.8609C122.387 37.728 121.932 38.364 121.206 38.5311C120.144 38.7763 119.279 38.0513 119.279 36.8964V26.346C119.279 26.2642 119.279 26.1825 119.282 26.1008C119.352 25.2834 119.888 24.7255 120.694 24.626C121.381 24.5443 122.037 24.9707 122.286 25.6743C122.373 25.9195 122.394 26.1754 122.394 26.4348V27.3694H122.398Z" fill="#00E76E"/>
<path d="M65.5719 36.8078C66.0486 35.6778 66.5077 34.5975 66.9633 33.5172C68.7297 29.3311 70.4961 25.1451 72.2625 20.959C72.3256 20.8097 72.3887 20.6569 72.4833 20.5254C72.6831 20.2447 73.0721 20.1559 73.3384 20.3407C73.6293 20.5397 73.7275 20.8097 73.5803 21.1509C72.988 22.5154 72.3992 23.88 71.8104 25.2481C70.0124 29.4058 68.218 33.5634 66.4236 37.7211C66.2799 38.0515 66.1327 38.3714 65.7331 38.446C65.253 38.5384 64.9446 38.3571 64.7062 37.8134C64.0894 36.4027 63.4796 34.9848 62.8663 33.5705C61.1034 29.4875 59.3405 25.4009 57.5741 21.3214C57.4479 21.0265 57.3989 20.7529 57.6161 20.4864C57.8019 20.2589 58.0507 20.2163 58.3101 20.2802C58.6185 20.3549 58.7412 20.6178 58.8533 20.8843C59.4877 22.3911 60.1255 23.8978 60.7599 25.408C62.3195 29.1108 63.8756 32.8101 65.4317 36.5128C65.4668 36.5946 65.5088 36.6763 65.5684 36.8113L65.5719 36.8078Z" fill="#00E76E"/>
<path d="M86.8247 29.0432V20.1699C86.8247 20.0349 86.8247 19.8963 86.8352 19.7648C86.8702 19.4557 87.0595 19.2745 87.3539 19.2283C87.6658 19.1785 87.9041 19.3064 88.0443 19.5978C88.1249 19.7613 88.1109 19.9425 88.1109 20.1166V37.9839C88.1109 38.1189 88.1109 38.2575 88.0759 38.3854C88.0023 38.7124 87.764 38.8581 87.4555 38.851C87.1436 38.8438 86.9193 38.6804 86.8457 38.3606C86.8142 38.2184 86.8247 38.0656 86.8247 37.9164V29.0432Z" fill="#00E76E"/>
<path d="M200 30.7097C199.853 30.5001 199.891 30.2478 199.849 30.0168C198.868 24.5799 193.369 23.2899 189.924 25.7703C187.814 27.2912 186.948 29.434 187.064 32.0103C187.134 33.581 187.583 35.0273 188.592 36.2497C190.099 38.0762 192.09 38.7798 194.382 38.6839C195.997 38.6164 197.448 38.0656 198.665 36.9604C199.225 36.4523 199.292 35.6278 198.84 35.0984C198.402 34.5831 197.673 34.5476 197.073 35.0166C196.733 35.2832 196.376 35.5212 195.987 35.706C193.481 36.9 190.849 35.7309 190.211 33.151C190.131 32.8277 190.159 32.7104 190.537 32.7139C193.138 32.7317 195.742 32.7246 198.342 32.721C199.222 32.721 199.677 32.3728 199.926 31.5271C200.014 31.289 199.891 31.026 199.996 30.7879V30.7062L200 30.7097ZM196.474 30.6351C195.458 30.6245 194.438 30.6316 193.421 30.6316H190.327C190.18 30.6316 189.976 30.6955 190.029 30.4077C190.278 29.0147 191.042 27.6679 192.496 27.2237C194.221 26.6978 195.833 27.5187 196.523 29.2563C196.653 29.5833 196.716 29.9315 196.804 30.2691C196.895 30.6245 196.748 30.6422 196.471 30.6387H196.474V30.6351Z" fill="#00E76E"/>
<path d="M118.238 25.9729C118.115 24.2316 117.414 22.7889 115.991 21.7548C114.663 20.7882 113.138 20.4791 111.547 20.4542C109.819 20.4293 108.088 20.4471 106.357 20.4542C105.232 20.4542 104.608 21.0832 104.608 22.2097V36.9924C104.608 37.4011 104.678 37.7742 104.944 38.094C105.375 38.6128 106.062 38.8012 106.689 38.5773C107.289 38.3605 107.688 37.7991 107.695 37.099C107.706 35.7949 107.716 34.4943 107.688 33.1901C107.681 32.8028 107.804 32.7317 108.161 32.7282C109.7 32.714 111.246 32.849 112.777 32.5967C114.365 32.3373 115.791 31.7296 116.885 30.4859C118.013 29.1995 118.36 27.6573 118.241 25.9835V25.9764L118.238 25.9729ZM112.041 29.7894C110.681 29.8818 109.308 29.8178 107.941 29.8391C107.66 29.8427 107.692 29.6686 107.692 29.4909V26.5592C107.692 25.6104 107.702 24.6581 107.685 23.7093C107.681 23.425 107.727 23.3006 108.053 23.3113C109.406 23.3575 110.758 23.2615 112.111 23.3788C113.685 23.5174 114.835 24.4555 115.087 25.8307C115.472 27.9273 114.197 29.6401 112.041 29.7894Z" fill="#00E76E"/>
<path d="M154.732 32.7175C156.047 32.7388 157.361 32.7246 158.675 32.7246H162.576C163.568 32.7246 164.146 32.1169 164.125 31.1148C164.118 30.7772 164.094 30.4397 164.038 30.1021C163.144 24.7256 157.894 23.4321 154.508 25.486C150.692 27.8029 150.544 32.6642 152.251 35.5035C153.485 37.5539 155.374 38.5382 157.694 38.6803C159.611 38.7976 161.356 38.2859 162.828 36.9782C163.393 36.4771 163.484 35.674 163.035 35.1197C162.608 34.5938 161.854 34.5369 161.272 35.006C160.519 35.6101 159.685 35.9796 158.728 36.1218C156.685 36.4238 154.841 35.1659 154.382 33.1404C154.305 32.7957 154.382 32.7104 154.732 32.7139V32.7175ZM154.361 30.3295C154.648 28.972 155.248 27.8456 156.583 27.309C158.546 26.5201 160.522 27.6785 161.034 29.8711C161.153 30.3792 160.957 30.6351 160.449 30.6351H157.719C156.688 30.6351 155.658 30.628 154.627 30.6387C154.389 30.6387 154.301 30.6138 154.361 30.3295Z" fill="#00E76E"/>
<path d="M130.192 32.721C131.521 32.7316 132.849 32.7245 134.174 32.7245C135.499 32.7245 136.83 32.7316 138.155 32.7245C139.056 32.7174 139.631 32.1204 139.645 31.2142C139.652 30.6954 139.589 30.1837 139.476 29.6827C138.334 24.626 133.378 23.5777 130.178 25.4006C126.288 27.6181 125.983 32.5824 127.809 35.5638C129.004 37.5182 130.816 38.4919 133.042 38.6696C135.032 38.8295 136.844 38.332 138.365 36.9568C138.94 36.438 139 35.642 138.537 35.0983C138.103 34.5866 137.363 34.5475 136.771 35.0237C135.996 35.6455 135.124 36.0151 134.139 36.1359C132.102 36.3918 130.291 35.0841 129.891 33.0692C129.828 32.7529 129.916 32.7138 130.192 32.7174V32.721ZM129.944 30.269C130.238 28.9613 130.827 27.8739 132.106 27.3302C133.928 26.5556 135.821 27.4901 136.494 29.4659C136.76 30.2441 136.494 30.635 135.695 30.635H133.326C132.295 30.635 131.265 30.6244 130.234 30.6421C129.933 30.6457 129.88 30.564 129.947 30.2726L129.944 30.269Z" fill="#00E76E"/>
<path d="M83.9611 29.7823C83.9296 27.6111 82.6118 25.9623 80.5335 25.4079C78.2099 24.7896 75.9668 25.145 73.7869 26.0724C73.4469 26.2146 73.3102 26.5237 73.4119 26.8293C73.5135 27.1385 73.857 27.3055 74.2039 27.2025C74.3581 27.1563 74.5018 27.0781 74.649 27.0177C76.1946 26.3709 77.7928 26.1542 79.4505 26.4029C81.5849 26.7227 82.8852 28.4107 82.6854 30.5748C82.6679 30.756 82.6223 30.8164 82.4436 30.7667C81.2064 30.4326 79.9482 30.2905 78.6725 30.2692C77.3582 30.2479 76.0825 30.3971 74.8839 30.9799C72.2448 32.2663 72.0695 35.5 73.6467 37.0955C74.7191 38.1794 76.0579 38.6378 77.5334 38.6911C79.5907 38.7657 81.3046 38.023 82.6959 36.3848C82.6959 36.893 82.6714 37.4047 82.7029 37.9129C82.731 38.3215 82.9763 38.4921 83.3934 38.4708C83.7754 38.453 83.9682 38.2576 83.9682 37.8418C83.9682 35.1553 83.9997 32.4688 83.9576 29.7823H83.9611ZM82.6889 32.4901C82.6609 32.6891 82.6889 32.8952 82.6889 33.1014C82.6889 35.4325 81.2309 37.06 78.8723 37.3905C77.6982 37.5575 76.5731 37.4722 75.5392 36.829C74.586 36.2356 74.1338 35.3685 74.218 34.2314C74.2916 33.2186 74.8278 32.515 75.6864 32.0495C76.7659 31.4632 77.9435 31.4063 79.1281 31.4703C80.183 31.5271 81.2274 31.687 82.2613 31.9251C82.5978 32.0033 82.7415 32.1348 82.6924 32.4866L82.6889 32.4901Z" fill="#00E76E"/>
<path d="M91.9171 32.433C93.5118 32.4614 95.1099 32.4436 96.7046 32.4436H101.454C102.056 32.4436 102.239 32.2482 102.225 31.6334C102.204 30.745 102.049 29.8815 101.744 29.05C100.22 24.8533 95.1975 23.7268 92.0993 26.9143C90.4276 28.6378 89.9194 30.7841 90.2558 33.1082C90.6414 35.752 92.0468 37.6851 94.6193 38.4776C97.2058 39.2736 99.5434 38.6695 101.492 36.715C101.8 36.4059 101.822 36.0789 101.573 35.8231C101.324 35.5672 100.987 35.5779 100.682 35.8551C100.353 36.1571 100.02 36.4449 99.6451 36.6901C96.5188 38.7405 92.1659 37.3404 91.5281 32.9056C91.4825 32.5858 91.5106 32.4259 91.9171 32.433ZM91.5912 30.8907C91.7944 28.8972 93.0772 26.7864 95.2116 26.232C97.4616 25.6493 99.5189 26.726 100.451 28.9576C100.682 29.512 100.805 30.0912 100.91 30.6775C100.966 31.0009 100.921 31.1573 100.521 31.1466C99.1018 31.1182 97.6789 31.1359 96.2595 31.1359H91.9171C91.7524 31.1359 91.5596 31.1892 91.5912 30.8872V30.8907Z" fill="#00E76E"/>
</svg>
